name Walk5.mot
datacolumns 19
datarows 10
range 3.14000000 3.18500000
endheader

                time	   L_ground_force_vx	   L_ground_force_vy	   L_ground_force_vz	   L_ground_force_px	   L_ground_force_py	   L_ground_force_pz	   R_ground_force_vx	   R_ground_force_vy	   R_ground_force_vz	   R_ground_force_px	   R_ground_force_py	   R_ground_force_pz	   L_ground_torque_x	   L_ground_torque_y	   L_ground_torque_z	   R_ground_torque_x	   R_ground_torque_y	   R_ground_torque_z	
          3.14000000	          0.01269381	          0.05721767	          0.00650387	         -0.00013899	          0.00000000	         -0.00004052	         -1.03439698	        960.50062991	        -57.99089259	          0.31480546	          0.00000000	          0.13524747	          0.00000000	          0.00025450	          0.00000000	          0.00000000	          3.91003598	          0.00000000	
          3.14500000	          0.00756569	          0.03872317	          0.00503529	         -0.00011571	          0.00000000	         -0.00003513	          0.63118695	        955.91563081	        -58.24107653	          0.31567348	          0.00000000	          0.13529575	          0.00000000	          0.00019888	          0.00000000	          0.00000000	          3.63901464	          0.00000000	
          3.15000000	          0.00367877	          0.02380048	          0.00369529	         -0.00009164	          0.00000000	         -0.00002889	          2.31343751	        951.35080925	        -58.46813766	          0.31653475	          0.00000000	          0.13533506	          0.00000000	          0.00014748	          0.00000000	          0.00000000	          3.37402589	          0.00000000	
          3.15500000	          0.00089521	          0.01234851	          0.00254372	         -0.00006895	          0.00000000	         -0.00002261	          4.00167476	        946.91469771	        -58.63731993	          0.31739499	          0.00000000	          0.13536439	          0.00000000	          0.00010286	          0.00000000	          0.00000000	          3.11578229	          0.00000000	
          3.16000000	         -0.00096063	          0.00402797	          0.00160406	         -0.00004895	          0.00000000	         -0.00001679	          5.68578715	        942.70518778	        -58.72140122	          0.31826274	          0.00000000	          0.13538318	          0.00000000	          0.00006610	          0.00000000	          0.00000000	          2.86459472	          0.00000000	
          3.16500000	         -0.00207477	         -0.00162639	          0.00087462	         -0.00003225	          0.00000000	         -0.00001173	          7.35607987	        938.80460894	        -58.70243910	          0.31914850	          0.00000000	          0.13539125	          0.00000000	          0.00003731	          0.00000000	          0.00000000	          2.62006764	          0.00000000	
          3.17000000	         -0.00262515	         -0.00512380	          0.00033766	         -0.00001899	          0.00000000	         -0.00000756	          9.00269055	        935.28003797	        -58.57286003	          0.32006443	          0.00000000	          0.13538981	          0.00000000	          0.00001589	          0.00000000	          0.00000000	          2.38126510	          0.00000000	
          3.17500000	         -0.00277049	         -0.00696139	         -0.00003338	         -0.00000898	          0.00000000	         -0.00000429	         10.61601514	        932.18309935	        -58.33575675	          0.32102498	          0.00000000	          0.13538185	          0.00000000	          0.00000090	          0.00000000	          0.00000000	          2.14689910	          0.00000000	
          3.18000000	         -0.00264458	         -0.00758924	         -0.00026868	         -0.00000186	          0.00000000	         -0.00000185	         12.18642876	        929.55579485	        -58.00424932	          0.32204620	          0.00000000	          0.13537173	          0.00000000	         -0.00000879	          0.00000000	          0.00000000	          1.91561570	          0.00000000	
          3.18500000	         -0.00235468	         -0.00739165	         -0.00039832	          0.00000286	          0.00000000	         -0.00000014	         13.70497995	        927.43585768	        -57.59993105	          0.32314494	          0.00000000	          0.13536421	          0.00000000	         -0.00001430	          0.00000000	          0.00000000	          1.68639483	          0.00000000	
